<svg xmlns="http://www.w3.org/2000/svg" width="141" height="133" viewBox="0 0 141 133">
  <path fill="none" stroke="#CAD4EE" d="M1276.5,174.628333 C1278.91561,174.628333 1281.76214,176.274301 1289.6939,181.650276 C1289.81871,181.734862 1289.81871,181.734862 1289.9435,181.819421 C1297.60602,187.010908 1300.99727,188.864077 1303.02924,188.456401 C1304.93741,188.073563 1305.37486,185.675061 1305.35156,178.860907 C1305.35146,178.830445 1305.35146,178.830445 1305.35135,178.799979 C1305.32745,171.785006 1305.72391,169.291757 1307.96703,168.337513 C1331.40824,158.365387 1346.5,138.094253 1346.5,115.564166 C1346.5,82.964359 1315.17685,56.5 1276.5,56.5 C1237.82315,56.5 1206.5,82.964359 1206.5,115.564166 C1206.5,148.163974 1237.82315,174.628333 1276.5,174.628333 Z" opacity=".519" transform="matrix(-1 0 0 1 1347 -56)"/>
</svg>
