<svg xmlns="http://www.w3.org/2000/svg" width="302" height="200" viewBox="0 0 302 200">
  <g fill="none" fill-rule="evenodd" transform="translate(4 30)">
    <path fill="#E3EBF6" d="M257.423655,2.23154227 L251.552362,128.664532 C251.514793,129.466779 250.853578,130.098944 250.051103,130.098944 L69.7226166,130.098944 C68.8645392,130.098944 68.1822851,129.382491 68.2213569,128.524553 L74.0926497,2.09156289 C74.1302188,1.28781031 74.7914343,0.655645361 75.5939094,0.655645361 L255.922396,0.655645361 C256.77897,0.655645361 257.462727,1.37360412 257.423655,2.23154227"/>
    <path fill="#FFF" d="M192.108491,54.9193299 L190.347253,92.8115979 L189.87238,103.076753 C189.834811,103.879 189.173596,104.511165 188.37112,104.511165 L89.6426343,104.511165 C88.7860597,104.511165 88.1023028,103.794711 88.1413746,102.936773 L88.6102365,92.8115979 L90.3880044,54.7688144 C90.4180597,53.9695773 91.0792751,53.3359072 91.8922696,53.3359072 L190.604225,53.3359072 C191.4608,53.3359072 192.138546,54.0613918 192.108491,54.9193299"/>
    <path fill="#2C61C9" d="M240.144141 68.4583464L237.281379 130.098944 204.447523 130.098944 207.314793 68.318367C207.352362 67.5146144 208.013578 66.8824495 208.816053 66.8824495L238.642882 66.8824495C239.500959 66.8824495 240.183213 67.6004082 240.144141 68.4583464M124.482678 13.6774907C124.482678 23.8252433 116.27459 32.0479031 106.141463 32.0479031 96.0248663 32.0479031 87.8152751 23.8252433 87.8152751 13.6774907L124.482678 13.6774907z"/>
    <polygon fill="#003EA1" points="110.827 0 74.16 0 87.815 13.678 124.483 13.678"/>
    <path fill="#FB0" d="M161.149931,13.6774907 C161.149931,23.8252433 152.941843,32.0479031 142.808716,32.0479031 C132.692119,32.0479031 124.482528,23.8252433 124.482528,13.6774907 L161.149931,13.6774907 Z"/>
    <polygon fill="#EDA700" points="147.494 0 110.827 0 124.483 13.678 161.15 13.678"/>
    <path fill="#2C61C9" d="M197.817936,13.6774907 C197.817936,23.8252433 189.608345,32.0479031 179.47672,32.0479031 C169.358621,32.0479031 161.150533,23.8252433 161.150533,13.6774907 L197.817936,13.6774907 Z"/>
    <polygon fill="#003EA1" points="184.162 0 147.494 0 161.15 13.678 197.817 13.678"/>
    <path fill="#FB0" d="M234.485189,13.6774907 C234.485189,23.8252433 226.277101,32.0479031 216.143973,32.0479031 C206.025874,32.0479031 197.817786,23.8252433 197.817786,13.6774907 L234.485189,13.6774907 Z"/>
    <polygon fill="#EDA700" points="220.829 0 184.162 0 197.817 13.678 234.485 13.678"/>
    <path fill="#2C61C9" d="M271.152442,13.6774907 C271.152442,23.8252433 262.944354,32.0479031 252.811227,32.0479031 C242.69463,32.0479031 234.485039,23.8252433 234.485039,13.6774907 L271.152442,13.6774907 Z"/>
    <polygon fill="#003EA1" points="257.496 0 220.829 0 234.484 13.678 271.152 13.678"/>
    <path fill="#FB0" d="M64.6187845,40.5425443 C64.6187845,57.5839052 50.8264309,71.3982144 33.8121547,71.3982144 C16.7978785,71.3982144 3.00552486,57.5839052 3.00552486,40.5425443 C3.00552486,23.5026887 16.7978785,9.68687423 33.8121547,9.68687423 C50.8264309,9.68687423 64.6187845,23.5026887 64.6187845,40.5425443"/>
    <path fill="#FB0" d="M81.1491713,57.0992454 C81.1491713,72.4789155 68.7017901,84.9461113 53.3480663,84.9461113 C37.9943425,84.9461113 25.5469613,72.4789155 25.5469613,57.0992454 C25.5469613,41.7210804 37.9943425,29.2538845 53.3480663,29.2538845 C68.7017901,29.2538845 81.1491713,41.7210804 81.1491713,57.0992454"/>
    <path fill="#EDA700" d="M46.5856354,64.6250186 C46.5856354,77.5106474 36.1579669,87.9549155 23.2928177,87.9549155 C10.4276685,87.9549155 0,77.5106474 0,64.6250186 C0,51.7408948 10.4276685,41.2951216 23.2928177,41.2951216 C36.1579669,41.2951216 46.5856354,51.7408948 46.5856354,64.6250186"/>
    <polygon fill="#E3EBF6" points="41.495 130.099 34.174 130.099 37.118 62.041 44.439 62.36"/>
    <path fill="#EDA700" d="M58.6077348,51.8312041 C58.6077348,63.4690598 49.1884199,72.9033691 37.5690608,72.9033691 C25.9497017,72.9033691 16.5303867,63.4690598 16.5303867,51.8312041 C16.5303867,40.1948536 25.9497017,30.7590392 37.5690608,30.7590392 C49.1884199,30.7590392 58.6077348,40.1948536 58.6077348,51.8312041"/>
    <path fill="#E3EBF6" d="M175.949436,140.004668 C175.949436,136.983823 162.329901,134.534936 145.530519,134.534936 C128.731138,134.534936 115.111602,136.983823 115.111602,140.004668 C115.111602,143.025513 128.731138,145.4744 145.530519,145.4744 C162.329901,145.4744 175.949436,143.025513 175.949436,140.004668"/>
    <path fill="#FF9100" d="M172.980579,92.4071629 C172.46964,118.819616 146.55901,137.960668 146.55901,137.960668 C146.55901,137.960668 121.371209,119.718194 121.865618,94.0974515 C122.13912,79.9354515 133.805065,68.0778433 147.91901,67.6097402 C162.034457,67.1446474 173.254082,78.246668 172.980579,92.4071629"/>
    <path fill="#FFF" d="M160.065538,92.7775814 C160.200787,85.7740969 154.651085,80.2817876 147.669251,80.5135814 C140.688919,80.7438701 134.919814,86.6094577 134.784566,93.6144474 C134.647814,100.617932 140.197516,106.108736 147.17935,105.878447 C154.161185,105.648159 159.93029,99.781066 160.065538,92.7775814"/>
  </g>
</svg>
