<svg xmlns="http://www.w3.org/2000/svg" xmlns:xlink="http://www.w3.org/1999/xlink" width="302" height="200" viewBox="0 0 302 200">
  <defs>
    <polygon id="gd-illu-03-a" points="0 -.001 84.225 -.001 84.225 81.284 0 81.284"/>
  </defs>
  <g fill="none" fill-rule="evenodd" transform="translate(54 29)">
    <g transform="translate(0 49.674)">
      <path fill="#FB0" d="M62.849152,21.1516568 L68.982464,18.4557305 L78.841184,21.6935516 C78.347872,31.1300463 78.481728,38.2409095 80.011296,41.0783305 C82.7576,41.4109937 84.786496,43.7396358 84.6376,46.59512 C84.491712,49.3768463 82.334976,51.6648463 79.653344,52.0908358 C78.558432,53.9633832 76.179104,58.8344147 75.754976,66.4224463 C75.437632,72.10632 70.611296,76.76812 64.924672,76.76812 L54.089856,76.76812 C51.888,76.76812 49.99296,78.56992 49.877152,80.7691095 L49.219904,93.3260147 L36.44192,93.3260147 L40.068064,24.0839095 L62.849152,21.1516568 Z"/>
      <g transform="translate(0 3.01)">
        <mask id="gd-illu-03-b" fill="#fff">
          <use xlink:href="#gd-illu-03-a"/>
        </mask>
        <path fill="#2C61C9" d="M10.8026304,60.9881453 L13.2511424,14.2437032 C13.6286464,7.03048211 19.3017344,1.08469263 26.2998464,0.143903158 L26.3088704,-0.000602105263 L29.2266304,-0.000602105263 L63.0666304,-0.000602105263 L74.7737664,-0.000602105263 C80.2513344,-0.000602105263 84.4971264,4.47906105 84.2113664,9.95370316 L83.7075264,19.5678189 L66.2039744,19.5678189 C64.0081344,19.5678189 62.1176064,21.3635979 62.0033024,23.5582716 L59.4104064,73.0618611 C59.1742784,77.5836716 55.2774144,81.2836084 50.7518784,81.2836084 L30.1380544,81.2836084 L9.7408064,81.2836084 L-0.0006016,81.2836084 C-0.0006016,81.2836084 10.0009984,76.3207558 10.8026304,60.9881453" mask="url(#gd-illu-03-b)"/>
      </g>
      <path fill="#E3EBF6" d="M140.86479,22.5789474 L138.303478,18.4560316 L128.921526,22.5789474 C128.921526,32.0154421 127.766454,38.2397053 126.089494,41.0786316 C123.325142,41.4112947 121.172918,43.7399368 121.172918,46.5954211 C121.172918,49.3771474 123.212342,51.6636421 125.86991,52.0896316 C126.865558,53.9636842 128.989206,58.8347158 129.017782,66.4227474 C129.038838,72.1051158 133.620022,76.7684211 139.306646,76.7684211 L150.141462,76.7684211 C152.343318,76.7684211 154.143606,78.5687158 154.143606,80.7694105 L154.143606,93.3263158 L166.92159,93.3263158 L166.92159,24.0842105 L140.86479,22.5789474 Z"/>
      <path fill="#2C61C9" d="M174.710656,3.01052632 L149.496096,3.01052632 L146.909216,3.01052632 C135.295328,3.01052632 130.10352,0 130.10352,0 L129.049216,20.1404211 L128.921376,22.5789474 L143.952352,22.5789474 C146.448992,22.5789474 148.365088,24.6050316 148.23424,27.1037684 L146.2264,65.4819579 C146.116608,67.5592211 147.710848,69.2421053 149.786368,69.2421053 L165.103104,69.2421053 C176.166528,69.2421053 185.602624,60.2662211 186.183168,49.1965158 L187.577376,22.5789474 L187.873664,16.9116316 C188.275232,9.23478947 182.38256,3.01052632 174.710656,3.01052632"/>
      <path fill="#E3EBF6" d="M154.888387,43.6526316 C155.107971,39.4950947 151.914979,36.1263158 147.763939,36.1263158 C143.609891,36.1263158 140.067971,39.4950947 139.848387,43.6526316 C139.630307,47.8101684 142.821795,51.1789474 146.974339,51.1789474 C151.128387,51.1789474 154.670307,47.8101684 154.888387,43.6526316"/>
    </g>
    <g transform="translate(24.064)">
      <path fill="#E3EBF6" d="M48.3290848,28.4001011 L49.3142048,7.27072211 C49.3472928,6.59034316 48.8028448,6.02135368 48.1230368,6.02135368 L2.6315488,6.02135368 C1.9938528,6.02135368 1.4704608,6.52260632 1.4388768,7.15933263 L0.3575008,30.3614589 C0.3259168,31.0418379 0.8688608,31.6108274 1.5486688,31.6108274 L36.8821408,31.6108274 L47.8357728,39.2951958 L48.3290848,28.4001011 Z"/>
      <path fill="#FF9100" d="M146.419664,0 L79.488656,0 C78.560688,0 77.795152,0.730052632 77.75304,1.6588 L76.199408,34.9582316 L75.509072,46.8452947 L89.518832,37.6315789 L144.826928,37.6315789 C145.7564,37.6315789 146.520432,36.9015263 146.564048,35.9727789 L148.15528,1.82136842 C148.203408,0.8294 147.4108,0 146.419664,0"/>
      <path stroke="#FFF" stroke-linecap="round" stroke-width="6" d="M94.5712192,19.5684211 L129.163219,19.5684211"/>
    </g>
  </g>
</svg>
