<svg xmlns="http://www.w3.org/2000/svg" xmlns:xlink="http://www.w3.org/1999/xlink" width="302" height="200" viewBox="0 0 302 200">
  <defs>
    <polygon id="gd-illu-02-a" points="1.344 0 190.579 0 190.579 129 1.344 129"/>
  </defs>
  <g fill="none" fill-rule="evenodd" transform="translate(25 28)">
    <polygon fill="#FB0" points="171.792 128.656 171.792 81.448 202.843 112.073 185.223 113.186"/>
    <g transform="translate(39.076)">
      <mask id="gd-illu-02-b" fill="#fff">
        <use xlink:href="#gd-illu-02-a"/>
      </mask>
      <path fill="#2C61C9" d="M190.578125,1.5747 L184.701692,127.5747 C184.656604,128.3697 183.995318,128.9997 183.198768,128.9997 L2.84789064,128.9997 C1.99122398,128.9997 1.31490819,128.2797 1.34496667,127.4247 L6.83063918,9.8397 L7.22139942,1.4247 C7.25145789,0.6297 7.91274444,-0.0003 8.72432339,-0.0003 L189.075201,-0.0003 C189.931867,-0.0003 190.608183,0.7212 190.578125,1.5747" mask="url(#gd-illu-02-b)"/>
    </g>
    <path fill="#003EA1" d="M217.014257,11.4156 L211.528584,129.0006 L41.9236135,129.0006 C41.0669468,129.0006 40.390631,128.2791 40.4206895,127.4256 L45.906362,9.8391 L215.511333,9.8391 C216.367999,9.8391 217.044315,10.5606 217.014257,11.4156"/>
    <path fill="#E3EBF6" d="M210.711895,16.57035 L204.839971,142.57035 C204.802398,143.36985 204.141112,143.99985 203.33855,143.99985 L22.9906789,143.99985 C22.1325094,143.99985 21.4501819,143.28585 21.4892579,142.42935 L27.3611819,16.42935 C27.398755,15.62985 28.0600415,14.99985 28.8626029,14.99985 L209.210474,14.99985 C210.067141,14.99985 210.750971,15.71535 210.711895,16.57035"/>
    <path fill="#FFF" d="M185.432263,28.75635 L180.054801,143.99985 L52.7781813,143.99985 L58.1631579,28.60035 C58.2052398,27.70485 58.9446784,26.99985 59.8434269,26.99985 L183.751994,26.99985 C184.712363,26.99985 185.477351,27.79935 185.432263,28.75635"/>
    <path fill="#E3EBF6" d="M163.973064 75.0879L162.648988 97.5879C162.602397 98.3799 161.944116 98.9994 161.14907 98.9994L73.9824848 98.9994C73.1168006 98.9994 72.4314673 98.2734 72.4810637 97.4124L73.8051398 74.9124C73.8517304 74.1189 74.5100111 73.4994 75.3050579 73.4994L162.473146 73.4994C163.337327 73.4994 164.024163 74.2269 163.973064 75.0879M161.846426 109.5879L160.52235 132.0879C160.47576 132.8799 159.817479 133.4994 159.022432 133.4994L71.8558474 133.4994C70.9901632 133.4994 70.3033269 132.7734 70.3544263 131.9124L71.6785023 109.4124C71.725093 108.6189 72.3833737 107.9994 73.1784205 107.9994L160.345005 107.9994C161.210689 107.9994 161.897526 108.7269 161.846426 109.5879"/>
    <path fill="#2C61C9" d="M134.960319,54.10695 L134.423775,61.60695 C134.366664,62.39145 133.712892,63.00045 132.92536,63.00045 L76.3838567,63.00045 C75.5121608,63.00045 74.8223187,62.26245 74.8839386,61.39245 L75.4189795,53.89245 C75.4745877,53.10795 76.1298626,52.50045 76.9188977,52.50045 L133.460401,52.50045 C134.333599,52.50045 135.023442,53.23845 134.960319,54.10695"/>
    <path fill="#FB0" d="M89.863131,93.07035 L88.5300374,121.57035 C88.4924643,122.36985 87.8326807,122.99985 87.0301193,122.99985 L1.50322456,122.99985 C0.645054971,122.99985 -0.0387754386,122.28585 0.00180350877,121.42935 L1.33489708,92.92935 C1.37247018,92.12985 2.03375673,91.49985 2.83631813,91.49985 L88.3617099,91.49985 C89.2198795,91.49985 89.9037099,92.21535 89.863131,93.07035"/>
    <path stroke="#FFF" stroke-linecap="round" stroke-width="6" d="M15.4874813,108 L74.1015164,108"/>
    <path fill="#FB0" d="M256.308204,30.07035 L254.975111,58.57035 C254.937537,59.36985 254.276251,59.99985 253.473689,59.99985 L197.380058,59.99985 C196.521888,59.99985 195.838058,59.28585 195.878637,58.42935 L197.21173,29.92935 C197.249304,29.12985 197.91059,28.49985 198.713151,28.49985 L254.806783,28.49985 C255.664953,28.49985 256.34728,29.21535 256.308204,30.07035"/>
    <path stroke="#FFF" stroke-linecap="round" stroke-width="6" d="M207.86175,43.5 L242.429002,43.5"/>
    <polygon fill="#FF9100" points="171.792 128.656 171.792 81.448 202.843 112.073 185.223 113.186"/>
  </g>
</svg>
